<svg version="1.0" xmlns="http://www.w3.org/2000/svg" preserveAspectRatio="xMidYMid meet" viewBox="10.27 8.08 381.73 106.92">

<g transform="translate(0.000000,123.000000) scale(0.100000,-0.100000)" fill="#FFFFFF" stroke="none">
<path d="M2675 1136 c-56 -18 -85 -34 -124 -70 -23 -22 -35 -27 -38 -18 -3 7 -16 25 -28 40 -22 26 -25 26 -41 10 -17 -16 -16 -20 11 -69 35 -65 48 -182 21 -192 -24 -9 -38 0 -74 49 -18 25 -41 44 -51 44 -41 0 -135 -46 -183 -89 -73 -65 -92 -113 -92 -236 -1 -156 16 -193 147 -314 l37 -34 53 35 c29 20 72 45 95 57 l43 22 73 -56 c41 -30 78 -55 83 -55 18 0 135 141 129 155 -6 18 -37 20 -53 4 -27 -27 -33 5 -33 181 0 156 2 179 16 184 69 26 131 -152 113 -326 -10 -106 -42 -161 -151 -261 -88 -81 -109 -117 -66 -117 30 0 110 65 217 176 121 124 154 190 159 319 5 105 -17 177 -74 248 -18 23 -40 57 -48 75 -16 35 -36 41 -57 16 -14 -18 -94 -74 -104 -74 -4 0 -5 43 -3 96 3 94 4 96 36 125 24 21 42 29 71 29 46 0 70 22 51 45 -15 18 -79 19 -135 1z m-368 -368 c28 -35 65 -71 82 -81 l31 -18 32 46 c17 25 36 45 41 45 4 0 7 -77 5 -170 -2 -137 -6 -173 -18 -180 -8 -5 -17 -6 -20 -1 -3 4 -35 7 -72 7 -57 -1 -70 2 -93 24 -15 14 -35 41 -45 61 -26 50 -44 161 -36 225 6 54 24 104 36 104 4 0 29 -28 57 -62z"/>
<path d="M197 1126 c-51 -19 -63 -31 -83 -82 -33 -86 7 -164 111 -215 73 -36 73 -47 -1 -57 l-49 -7 -5 -157 c-5 -149 -6 -158 -29 -182 -30 -32 -21 -44 54 -71 30 -11 67 -35 92 -61 24 -24 49 -44 56 -44 24 0 127 69 172 115 55 56 81 105 101 191 43 186 -58 320 -319 424 -82 32 -111 88 -55 105 12 5 18 14 16 28 -4 27 -15 29 -61 13z m222 -404 c34 -34 51 -61 59 -94 18 -70 15 -156 -8 -206 l-19 -42 -63 38 -63 39 -3 142 c-3 191 11 209 97 123z"/>
<path d="M1567 1123 c-27 -9 -70 -36 -97 -60 l-48 -43 -26 35 c-29 38 -47 43 -65 21 -9 -11 -5 -23 19 -58 42 -59 50 -122 50 -380 l0 -217 -25 -27 c-14 -15 -24 -32 -22 -38 2 -6 25 -18 52 -28 27 -9 65 -33 85 -53 20 -19 41 -35 48 -35 6 0 24 19 38 43 15 23 40 58 55 78 16 20 29 42 29 48 0 20 -30 24 -50 6 -14 -13 -23 -14 -39 -5 -20 10 -21 17 -21 284 0 150 3 287 6 303 9 48 35 73 84 81 39 7 45 11 45 32 0 21 -5 25 -35 27 -19 1 -57 -5 -83 -14z"/>
<path d="M1923 1119 c-28 -11 -71 -37 -95 -58 l-43 -39 -31 36 c-21 25 -36 34 -47 29 -19 -7 -23 -42 -7 -52 6 -4 20 -25 33 -48 21 -40 22 -55 25 -307 3 -258 3 -266 -17 -284 -33 -30 -26 -51 20 -65 23 -7 60 -30 84 -52 23 -21 49 -39 56 -39 8 0 23 15 33 33 11 17 37 55 58 84 22 29 37 57 33 63 -9 15 -36 12 -56 -6 -14 -12 -22 -13 -38 -4 -20 10 -21 17 -21 278 0 147 5 285 10 306 11 50 39 77 87 85 32 5 38 10 38 31 0 21 -5 25 -35 27 -19 1 -58 -7 -87 -18z"/>
<path d="M3785 999 c-39 -39 -107 -102 -152 -140 -90 -77 -95 -95 -32 -105 l39 -7 0 -167 c0 -154 -2 -168 -20 -185 -31 -28 -24 -43 34 -69 30 -13 69 -38 87 -55 17 -17 37 -31 44 -31 7 0 29 26 49 58 20 31 46 69 57 84 12 14 18 31 15 37 -10 16 -41 14 -56 -4 -9 -11 -17 -12 -31 -4 -17 9 -19 23 -19 174 l0 165 44 0 c52 0 76 19 76 60 0 36 -23 50 -79 50 -23 0 -41 2 -41 5 0 9 58 127 78 158 15 24 15 29 2 37 -8 5 -17 10 -20 10 -3 0 -37 -32 -75 -71z"/>
<path d="M1073 903 c-9 -16 -32 -45 -51 -65 -21 -22 -32 -42 -28 -50 4 -7 13 -24 21 -38 11 -19 15 -62 15 -172 l0 -147 -28 -19 c-26 -19 -28 -19 -50 -2 -21 17 -22 25 -22 177 0 87 -5 176 -11 198 -7 24 -29 57 -55 83 -62 63 -86 57 -137 -31 -21 -37 -36 -74 -33 -82 6 -18 43 -20 48 -3 2 6 10 8 16 4 9 -5 12 -56 12 -175 0 -164 -1 -169 -22 -184 -31 -20 -16 -46 37 -64 22 -7 56 -29 75 -48 20 -19 41 -35 48 -35 6 0 37 26 67 57 l56 58 21 -33 c19 -31 92 -82 116 -82 12 0 43 44 81 116 19 34 19 40 6 54 -13 12 -19 13 -37 1 -34 -21 -39 1 -36 172 3 138 5 160 21 171 24 18 21 39 -9 67 -15 13 -37 41 -50 62 -29 44 -48 47 -71 10z"/>
<path d="M3205 883 c-10 -16 -55 -64 -100 -108 -46 -44 -89 -96 -97 -115 -49 -117 -19 -270 67 -350 15 -14 31 -35 36 -47 12 -33 28 -29 100 27 35 27 66 50 69 50 3 0 13 -13 22 -30 17 -29 99 -77 116 -66 13 8 92 144 92 160 0 21 -31 28 -50 11 -9 -8 -20 -12 -23 -8 -4 3 -7 71 -7 151 0 129 2 147 21 173 24 35 20 44 -29 60 -39 12 -114 63 -146 98 -26 29 -50 26 -71 -6z m15 -145 c15 -13 35 -28 45 -33 16 -10 17 -23 10 -158 -7 -135 -9 -149 -28 -159 -18 -9 -25 -6 -53 26 -38 44 -58 110 -59 191 0 62 28 155 47 155 6 0 23 -10 38 -22z"/>
</g>
</svg>
